<svg xmlns="http://www.w3.org/2000/svg" xmlns:svg="http://www.w3.org/2000/svg" xmlns:xlink="http://www.w3.org/1999/xlink" version="1.0" height="603.5pt" width="880.0000000000007pt" viewBox="155 77 888.0000000000007 609.5" ><defs><style type="text/css">
            @font-face {
                font-family: 'noto_regular';
                src: url('https://app.creately.com/diagram/assets/fonts/noto/noto-regular.woff') format('woff'),
                     url('https://app.creately.com/diagram/assets/fonts/noto/noto-regular.woff2') format('woff2');
                font-weight: normal;
                font-style: normal;
            }
        p {
            margin: 0;
        }
        </style></defs><defs><style>
            span{ display: inline-block; }
        </style></defs><g id="2tEiboFTJEw"><g transform="translate(190.00000000000006 190)"><rect x="0" y="0" width="849.9999999999999" height="430.00000000000006" fill="white" stroke="#97a3b6" stroke-width="2" stroke-linecap="round" stroke-linejoin="round"/></g></g><g id="wJ6vx5OGggm"><g transform="translate(190 140)"><rect x="0" y="0" width="849.9999999999999" height="59.99999999999995" fill="rgb(227,232,239)" stroke="#97a3b6" stroke-width="2" stroke-linecap="round" stroke-linejoin="round"/></g></g><g id="LKM8D1zEHJ5"><g transform="translate(190.00000000000006 140)"><path d="M 0,0 L 850.0000000000006,0 M 0,0 L 0,479.99999999999983 M 50.00000000000003,0 L 50.00000000000003,479.99999999999983 M 100.00000000000006,0 L 100.00000000000006,479.99999999999983 M 0,54.75175282770496 L 850.0000000000006,54.75175282770496 M 0,479.99999999999983 L 850.0000000000006,479.99999999999983 M 150.00000000000009,0 L 150.00000000000009,479.99999999999983 M 200.0000000000001,0 L 200.0000000000001,479.99999999999983 M 250.00000000000014,0 L 250.00000000000014,479.99999999999983 M 300.00000000000017,0 L 300.00000000000017,479.99999999999983 M 350.0000000000002,0 L 350.0000000000002,479.99999999999983 M 400.0000000000002,0 L 400.0000000000002,479.99999999999983 M 450.00000000000034,0 L 450.00000000000034,479.99999999999983 M 500.0000000000003,0 L 500.0000000000003,479.99999999999983 M 550.0000000000003,0 L 550.0000000000003,479.99999999999983 M 600.0000000000003,0 L 600.0000000000003,479.99999999999983 M 650.0000000000005,0 L 650.0000000000005,479.99999999999983 M 700.0000000000005,0 L 700.0000000000005,479.99999999999983 M 750.0000000000005,0 L 750.0000000000005,479.99999999999983 M 800.0000000000005,0 L 800.0000000000005,479.99999999999983 M 850.0000000000006,0 L 850.0000000000006,479.99999999999983" fill="rgb(255,255,255)" stroke="#97a3b6" stroke-width="2" stroke-linecap="round" stroke-linejoin="round"/></g><g transform="translate(200.31000000000006, 149.1908764138525) rotate(0, 14.69, 18.185)" width="29.38" height="36.37"><text text-decoration="none" x="0.6899999999999995" fill="#000000" font-size="10pt" font-family="noto_regular"  y="14">2018</text><text text-decoration="none" x="28.689999999999998" fill="#000000" font-size="10pt" font-family="noto_regular"  y="14"></text><text text-decoration="none" x="3.1899999999999995" fill="#000000" font-size="10pt" font-family="noto_regular"  y="36">Aug</text><text text-decoration="none" x="26.189999999999998" fill="#4b4b4b" font-size="10pt" font-family="noto_regular"  y="36"></text></g><g transform="translate(253.4750000000001, 158.2808764138525) rotate(0, 11.525, 9.095)" width="23.05" height="18.19"><text text-decoration="none" x="0.5250000000000004" fill="#000000" font-size="10pt" font-family="noto_regular"  y="17">Sep</text><text text-decoration="none" x="22.525" fill="#4b4b4b" font-size="10pt" font-family="noto_regular"  y="17"></text></g><g transform="translate(214.9950000000001, 398.23587641385245) rotate(0, 0.005, 9.14)" width="0.01" height="18.28"><text text-decoration="none" x="0.005" fill="#4b4b4b" font-size="10pt" font-family="noto_regular"  y="17"></text></g><g transform="translate(264.9950000000002, 398.23587641385245) rotate(0, 0.005, 9.14)" width="0.01" height="18.28"><text text-decoration="none" x="0.005" fill="#4b4b4b" font-size="10pt" font-family="noto_regular"  y="17"></text></g><g transform="translate(304.1850000000001, 158.2808764138525) rotate(0, 10.815, 9.095)" width="21.63" height="18.19"><text text-decoration="none" x="0.3149999999999995" fill="#000000" font-size="10pt" font-family="noto_regular"  y="17">Oct</text><text text-decoration="none" x="21.314999999999998" fill="#4b4b4b" font-size="10pt" font-family="noto_regular"  y="17"></text></g><g transform="translate(314.9950000000002, 398.23587641385245) rotate(0, 0.005, 9.14)" width="0.01" height="18.28"><text text-decoration="none" x="0.005" fill="#4b4b4b" font-size="10pt" font-family="noto_regular"  y="17"></text></g><g transform="translate(352.5150000000001, 158.2808764138525) rotate(0, 12.485, 9.095)" width="24.97" height="18.19"><text text-decoration="none" x="0" fill="#000000" font-size="10pt" font-family="noto_regular"  y="17">Nov</text><text text-decoration="none" x="25" fill="#4b4b4b" font-size="10pt" font-family="noto_regular"  y="17"></text></g><g transform="translate(364.9950000000002, 398.23587641385245) rotate(0, 0.005, 9.14)" width="0.01" height="18.28"><text text-decoration="none" x="0.005" fill="#4b4b4b" font-size="10pt" font-family="noto_regular"  y="17"></text></g><g transform="translate(403.1700000000002, 158.2808764138525) rotate(0, 11.83, 9.095)" width="23.66" height="18.19"><text text-decoration="none" x="0.8300000000000001" fill="#000000" font-size="10pt" font-family="noto_regular"  y="17">Dec</text><text text-decoration="none" x="22.83" fill="#4b4b4b" font-size="10pt" font-family="noto_regular"  y="17"></text></g><g transform="translate(414.99500000000023, 398.23587641385245) rotate(0, 0.005, 9.14)" width="0.01" height="18.28"><text text-decoration="none" x="0.005" fill="#4b4b4b" font-size="10pt" font-family="noto_regular"  y="17"></text></g><g transform="translate(450.31000000000023, 149.1908764138525) rotate(0, 14.69, 18.185)" width="29.38" height="36.37"><text text-decoration="none" x="0.6899999999999995" fill="#000000" font-size="10pt" font-family="noto_regular"  y="14">2019</text><text text-decoration="none" x="28.689999999999998" fill="#000000" font-size="10pt" font-family="noto_regular"  y="14"></text><text text-decoration="none" x="5.6899999999999995" fill="#000000" font-size="10pt" font-family="noto_regular"  y="36">Jan</text><text text-decoration="none" x="23.689999999999998" fill="#4b4b4b" font-size="10pt" font-family="noto_regular"  y="36"></text></g><g transform="translate(464.9950000000003, 398.23587641385245) rotate(0, 0.005, 9.14)" width="0.01" height="18.28"><text text-decoration="none" x="0.005" fill="#4b4b4b" font-size="10pt" font-family="noto_regular"  y="17"></text></g><g transform="translate(503.67500000000024, 158.2808764138525) rotate(0, 11.325, 9.095)" width="22.65" height="18.19"><text text-decoration="none" x="0.3249999999999993" fill="#000000" font-size="10pt" font-family="noto_regular"  y="17">Feb</text><text text-decoration="none" x="22.325" fill="#4b4b4b" font-size="10pt" font-family="noto_regular"  y="17"></text></g><g transform="translate(514.9950000000002, 398.23587641385245) rotate(0, 0.005, 9.14)" width="0.01" height="18.28"><text text-decoration="none" x="0.005" fill="#4b4b4b" font-size="10pt" font-family="noto_regular"  y="17"></text></g><g transform="translate(552.4500000000003, 158.2808764138525) rotate(0, 12.55, 9.095)" width="25.1" height="18.19"><text text-decoration="none" x="0.5500000000000007" fill="#000000" font-size="10pt" font-family="noto_regular"  y="17">Mar</text><text text-decoration="none" x="24.55" fill="#4b4b4b" font-size="10pt" font-family="noto_regular"  y="17"></text></g><g transform="translate(564.9950000000002, 398.23587641385245) rotate(0, 0.005, 9.14)" width="0.01" height="18.28"><text text-decoration="none" x="0.005" fill="#4b4b4b" font-size="10pt" font-family="noto_regular"  y="17"></text></g><g transform="translate(603.8800000000003, 158.2808764138525) rotate(0, 11.12, 9.095)" width="22.24" height="18.19"><text text-decoration="none" x="0.6199999999999992" fill="#000000" font-size="10pt" font-family="noto_regular"  y="17">Apr</text><text text-decoration="none" x="21.619999999999997" fill="#4b4b4b" font-size="10pt" font-family="noto_regular"  y="17"></text></g><g transform="translate(614.9950000000003, 398.23587641385245) rotate(0, 0.005, 9.14)" width="0.01" height="18.28"><text text-decoration="none" x="0.005" fill="#4b4b4b" font-size="10pt" font-family="noto_regular"  y="17"></text></g><g transform="translate(651.8100000000004, 158.2808764138525) rotate(0, 13.19, 9.095)" width="26.38" height="18.19"><text text-decoration="none" x="0.1899999999999995" fill="#000000" font-size="10pt" font-family="noto_regular"  y="17">May</text><text text-decoration="none" x="26.189999999999998" fill="#4b4b4b" font-size="10pt" font-family="noto_regular"  y="17"></text></g><g transform="translate(664.9950000000005, 398.23587641385245) rotate(0, 0.005, 9.14)" width="0.01" height="18.28"><text text-decoration="none" x="0.005" fill="#4b4b4b" font-size="10pt" font-family="noto_regular"  y="17"></text></g><g transform="translate(704.9350000000004, 158.2808764138525) rotate(0, 10.065, 9.095)" width="20.13" height="18.19"><text text-decoration="none" x="0.5649999999999995" fill="#000000" font-size="10pt" font-family="noto_regular"  y="17">Jun</text><text text-decoration="none" x="19.564999999999998" fill="#4b4b4b" font-size="10pt" font-family="noto_regular"  y="17"></text></g><g transform="translate(714.9950000000005, 398.23587641385245) rotate(0, 0.005, 9.14)" width="0.01" height="18.28"><text text-decoration="none" x="0.005" fill="#4b4b4b" font-size="10pt" font-family="noto_regular"  y="17"></text></g><g transform="translate(757.3400000000005, 158.2808764138525) rotate(0, 7.66, 9.095)" width="15.32" height="18.19"><text text-decoration="none" x="0.6600000000000001" fill="#000000" font-size="10pt" font-family="noto_regular"  y="17">Jul</text><text text-decoration="none" x="14.66" fill="#4b4b4b" font-size="10pt" font-family="noto_regular"  y="17"></text></g><g transform="translate(764.9950000000005, 398.23587641385245) rotate(0, 0.005, 9.14)" width="0.01" height="18.28"><text text-decoration="none" x="0.005" fill="#4b4b4b" font-size="10pt" font-family="noto_regular"  y="17"></text></g><g transform="translate(803.2350000000005, 158.2808764138525) rotate(0, 11.765, 9.095)" width="23.53" height="18.19"><text text-decoration="none" x="0.7650000000000006" fill="#000000" font-size="10pt" font-family="noto_regular"  y="17">Ayg</text><text text-decoration="none" x="22.765" fill="#4b4b4b" font-size="10pt" font-family="noto_regular"  y="17"></text></g><g transform="translate(814.9950000000005, 398.23587641385245) rotate(0, 0.005, 9.14)" width="0.01" height="18.28"><text text-decoration="none" x="0.005" fill="#4b4b4b" font-size="10pt" font-family="noto_regular"  y="17"></text></g><g transform="translate(853.4750000000005, 158.2808764138525) rotate(0, 11.525, 9.095)" width="23.05" height="18.19"><text text-decoration="none" x="0.5250000000000004" fill="#000000" font-size="10pt" font-family="noto_regular"  y="17">Sep</text><text text-decoration="none" x="22.525" fill="#4b4b4b" font-size="10pt" font-family="noto_regular"  y="17"></text></g><g transform="translate(864.9950000000005, 398.23587641385245) rotate(0, 0.005, 9.14)" width="0.01" height="18.28"><text text-decoration="none" x="0.005" fill="#4b4b4b" font-size="10pt" font-family="noto_regular"  y="17"></text></g><g transform="translate(904.1850000000006, 158.2808764138525) rotate(0, 10.815, 9.095)" width="21.63" height="18.19"><text text-decoration="none" x="0.3149999999999995" fill="#000000" font-size="10pt" font-family="noto_regular"  y="17">Oct</text><text text-decoration="none" x="21.314999999999998" fill="#4b4b4b" font-size="10pt" font-family="noto_regular"  y="17"></text></g><g transform="translate(914.9950000000007, 398.23587641385245) rotate(0, 0.005, 9.14)" width="0.01" height="18.28"><text text-decoration="none" x="0.005" fill="#4b4b4b" font-size="10pt" font-family="noto_regular"  y="17"></text></g><g transform="translate(952.5150000000004, 158.2808764138525) rotate(0, 12.485, 9.095)" width="24.97" height="18.19"><text text-decoration="none" x="0" fill="#000000" font-size="10pt" font-family="noto_regular"  y="17">Nov</text><text text-decoration="none" x="25" fill="#4b4b4b" font-size="10pt" font-family="noto_regular"  y="17"></text></g><g transform="translate(964.9950000000005, 398.23587641385245) rotate(0, 0.005, 9.14)" width="0.01" height="18.28"><text text-decoration="none" x="0.005" fill="#4b4b4b" font-size="10pt" font-family="noto_regular"  y="17"></text></g><g transform="translate(1003.1700000000004, 158.2808764138525) rotate(0, 11.83, 9.095)" width="23.66" height="18.19"><text text-decoration="none" x="0.8300000000000001" fill="#000000" font-size="10pt" font-family="noto_regular"  y="17">Dec</text><text text-decoration="none" x="22.83" fill="#4b4b4b" font-size="10pt" font-family="noto_regular"  y="17"></text></g><g transform="translate(1014.9950000000005, 398.23587641385245) rotate(0, 0.005, 9.14)" width="0.01" height="18.28"><text text-decoration="none" x="0.005" fill="#4b4b4b" font-size="10pt" font-family="noto_regular"  y="17"></text></g></g><g id="283h1oolqo"><g transform="translate(320 255)"><path d="M 0.75,0.75 L 160,0.75 L 160,23.25 L 0.75,23.25 Z" fill="rgb(66,146,136)" stroke="#429288" stroke-width="1.5" stroke-linecap="round" stroke-linejoin="round" stroke-dasharray="0 0"/></g><g transform="translate(440, 256.5) rotate(0, 0, 0)" width="40.19" height="20.37"><text text-decoration="none" x="0" fill="#5c5c5c" font-size="11pt" font-family="noto_regular"  y="17">100%&#160;</text><text text-decoration="none" x="43" fill="#4b4b4b" font-size="10pt" font-family="noto_regular"  y="17"></text></g><g transform="translate(325, 254.4) rotate(0, 0, 0)" width="46.96" height="20.37"><text text-decoration="none" x="0" fill="#ffffff" font-size="11pt" font-family="noto_regular"  y="17">Task&#160;</text><text text-decoration="none" x="35" fill="#ffffff" font-size="11pt" font-family="noto_regular"  y="17">1&#160;</text><text text-decoration="none" x="48" fill="#4b4b4b" font-size="10pt" font-family="noto_regular"  y="17"></text></g></g><g id="29q2lbbmha"><g transform="translate(520 285)"><path d="M 0.75,0.75 L 145,0.75 L 145,23.75 L 0.75,23.75 Z" fill="rgb(66,146,136)" stroke="#429288" stroke-width="1.5" stroke-linecap="round" stroke-linejoin="round" stroke-dasharray="0 0"/></g><g transform="translate(625, 286.75) rotate(0, 0, 0)" width="40.19" height="20.37"><text text-decoration="none" x="0" fill="#5c5c5c" font-size="11pt" font-family="noto_regular"  y="17">100%&#160;</text><text text-decoration="none" x="43" fill="#4b4b4b" font-size="10pt" font-family="noto_regular"  y="17"></text></g><g transform="translate(525, 284.65) rotate(0, 0, 0)" width="46.96" height="20.37"><text text-decoration="none" x="0" fill="#ffffff" font-size="11pt" font-family="noto_regular"  y="17">Task&#160;</text><text text-decoration="none" x="35" fill="#ffffff" font-size="11pt" font-family="noto_regular"  y="17">3&#160;</text><text text-decoration="none" x="48" fill="#4b4b4b" font-size="10pt" font-family="noto_regular"  y="17"></text></g></g><g id="3sgm0genv4"><g transform="translate(225 210)"><path d="M 0.75,0.75 L 400,0.75 L 400,24.25 L 0.75,24.25 Z" fill="rgb(42,77,209)" stroke="#2a4dd1" stroke-width="1.5" stroke-linecap="round" stroke-linejoin="round" stroke-dasharray="0 0"/></g><g transform="translate(585, 212) rotate(0, 0, 0)" width="40.19" height="20.37"><text text-decoration="none" x="0" fill="#f4f4f4" font-size="11pt" font-family="noto_regular"  y="17">100%&#160;</text><text text-decoration="none" x="43" fill="#4b4b4b" font-size="10pt" font-family="noto_regular"  y="17"></text></g><g transform="translate(230, 209.9) rotate(0, 0, 0)" width="46.96" height="20.37"><text text-decoration="none" x="0" fill="#ffffff" font-size="11pt" font-family="noto_regular"  y="17">Task&#160;</text><text text-decoration="none" x="35" fill="#ffffff" font-size="11pt" font-family="noto_regular"  y="17">4&#160;</text><text text-decoration="none" x="48" fill="#4b4b4b" font-size="10pt" font-family="noto_regular"  y="17"></text></g></g><g id="2a8bpi32bx"><g transform="translate(770 260)"><path d="M 0.75,0.75 L 250,0.75 L 250,24.25 L 0.75,24.25 Z" fill="rgb(66,146,136)" stroke="#429288" stroke-width="1.5" stroke-linecap="round" stroke-linejoin="round" stroke-dasharray="0 0"/></g><g transform="translate(980, 262) rotate(0, 0, 0)" width="40.19" height="20.37"><text text-decoration="none" x="0" fill="#5c5c5c" font-size="11pt" font-family="noto_regular"  y="17">100%&#160;</text><text text-decoration="none" x="43" fill="#4b4b4b" font-size="10pt" font-family="noto_regular"  y="17"></text></g><g transform="translate(775, 259.9) rotate(0, 0, 0)" width="46.96" height="20.37"><text text-decoration="none" x="0" fill="#ffffff" font-size="11pt" font-family="noto_regular"  y="17">Task&#160;</text><text text-decoration="none" x="35" fill="#ffffff" font-size="11pt" font-family="noto_regular"  y="17">2&#160;</text><text text-decoration="none" x="48" fill="#4b4b4b" font-size="10pt" font-family="noto_regular"  y="17"></text></g></g><g id="2jikhp8msv"><g transform="translate(240 340)"><path d="M 0.75,0.75 L 135,0.75 L 135,23.75 L 0.75,23.75 Z" fill="rgb(231,121,117)" stroke="#e77975" stroke-width="1.5" stroke-linecap="round" stroke-linejoin="round" stroke-dasharray="0 0"/></g><g transform="translate(335, 341.75) rotate(0, 0, 0)" width="40.19" height="20.37"><text text-decoration="none" x="0" fill="#5c5c5c" font-size="11pt" font-family="noto_regular"  y="17">100%&#160;</text><text text-decoration="none" x="43" fill="#4b4b4b" font-size="10pt" font-family="noto_regular"  y="17"></text></g><g transform="translate(245, 339.65) rotate(0, 0, 0)" width="46.96" height="20.37"><text text-decoration="none" x="0" fill="#ffffff" font-size="11pt" font-family="noto_regular"  y="17">Task&#160;</text><text text-decoration="none" x="35" fill="#ffffff" font-size="11pt" font-family="noto_regular"  y="17">5&#160;</text><text text-decoration="none" x="48" fill="#4b4b4b" font-size="10pt" font-family="noto_regular"  y="17"></text></g></g><g id="e8t3f248yi"><g transform="translate(455 380)"><path d="M 0.75,0.75 L 100,0.75 L 100,24.25 L 0.75,24.25 Z" fill="rgb(231,121,117)" stroke="#e77975" stroke-width="1.5" stroke-linecap="round" stroke-linejoin="round" stroke-dasharray="0 0"/></g><g transform="translate(515, 382) rotate(0, 0, 0)" width="40.19" height="20.37"><text text-decoration="none" x="0" fill="#5c5c5c" font-size="11pt" font-family="noto_regular"  y="17">100%&#160;</text><text text-decoration="none" x="43" fill="#4b4b4b" font-size="10pt" font-family="noto_regular"  y="17"></text></g><g transform="translate(460, 379.9) rotate(0, 0, 0)" width="46.96" height="20.37"><text text-decoration="none" x="0" fill="#ffffff" font-size="11pt" font-family="noto_regular"  y="17">Task&#160;</text><text text-decoration="none" x="35" fill="#ffffff" font-size="11pt" font-family="noto_regular"  y="17">6&#160;</text><text text-decoration="none" x="48" fill="#4b4b4b" font-size="10pt" font-family="noto_regular"  y="17"></text></g></g><g id="2d4kdtt7mk"><g transform="translate(535 340)"><path d="M 0.75,0.75 L 260,0.75 L 260,24.75 L 0.75,24.75 Z" fill="rgb(242,193,75)" stroke="#f2c14b" stroke-width="1.5" stroke-linecap="round" stroke-linejoin="round" stroke-dasharray="0 0"/></g><g transform="translate(755, 342.25) rotate(0, 0, 0)" width="40.19" height="20.37"><text text-decoration="none" x="0" fill="#5c5c5c" font-size="11pt" font-family="noto_regular"  y="17">100%&#160;</text><text text-decoration="none" x="43" fill="#4b4b4b" font-size="10pt" font-family="noto_regular"  y="17"></text></g><g transform="translate(545, 340.1) rotate(0, 0, 0)" width="46.96" height="20.37"><text text-decoration="none" x="0" fill="#ffffff" font-size="11pt" font-family="noto_regular"  y="17">Task&#160;</text><text text-decoration="none" x="35" fill="#ffffff" font-size="11pt" font-family="noto_regular"  y="17">7&#160;</text><text text-decoration="none" x="48" fill="#4b4b4b" font-size="10pt" font-family="noto_regular"  y="17"></text></g></g><g id="2llnsm68rn"><g transform="translate(390 430)"><path d="M 0.75,0.75 L 265,0.75 L 265,24.25 L 0.75,24.25 Z" fill="rgb(42,77,209)" stroke="#2a4dd1" stroke-width="1.5" stroke-linecap="round" stroke-linejoin="round" stroke-dasharray="0 0"/></g><g transform="translate(615, 432) rotate(0, 0, 0)" width="40.19" height="20.37"><text text-decoration="none" x="0" fill="#f4f4f4" font-size="11pt" font-family="noto_regular"  y="17">100%&#160;</text><text text-decoration="none" x="43" fill="#4b4b4b" font-size="10pt" font-family="noto_regular"  y="17"></text></g><g transform="translate(395, 429.9) rotate(0, 0, 0)" width="46.96" height="20.37"><text text-decoration="none" x="0" fill="#ffffff" font-size="11pt" font-family="noto_regular"  y="17">Task&#160;</text><text text-decoration="none" x="35" fill="#ffffff" font-size="11pt" font-family="noto_regular"  y="17">8&#160;</text><text text-decoration="none" x="48" fill="#4b4b4b" font-size="10pt" font-family="noto_regular"  y="17"></text></g></g><g id="1vvfhemar3"><g transform="translate(830 430)"><path d="M 0.75,0.75 L 110,0.75 L 110,24.75 L 0.75,24.75 Z" fill="rgb(42,77,209)" stroke="#2a4dd1" stroke-width="1.5" stroke-linecap="round" stroke-linejoin="round" stroke-dasharray="0 0"/></g><g transform="translate(900, 432.25) rotate(0, 0, 0)" width="40.19" height="20.37"><text text-decoration="none" x="0" fill="#f4f4f4" font-size="11pt" font-family="noto_regular"  y="17">100%&#160;</text><text text-decoration="none" x="43" fill="#4b4b4b" font-size="10pt" font-family="noto_regular"  y="17"></text></g><g transform="translate(835, 430.1) rotate(0, 0, 0)" width="46.96" height="20.37"><text text-decoration="none" x="0" fill="#ffffff" font-size="11pt" font-family="noto_regular"  y="17">Task&#160;</text><text text-decoration="none" x="35" fill="#ffffff" font-size="11pt" font-family="noto_regular"  y="17">9&#160;</text><text text-decoration="none" x="48" fill="#4b4b4b" font-size="10pt" font-family="noto_regular"  y="17"></text></g></g><g id="7agv988s1z"><g transform="translate(235 530)"><path d="M 0.75,0.75 L 105,0.75 L 105,24.75 L 0.75,24.75 Z" fill="rgb(94,194,105)" stroke="#5ec269" stroke-width="1.5" stroke-linecap="round" stroke-linejoin="round" stroke-dasharray="0 0"/></g><g transform="translate(300, 532.25) rotate(0, 0, 0)" width="40.19" height="20.37"><text text-decoration="none" x="0" fill="#5c5c5c" font-size="11pt" font-family="noto_regular"  y="17">100%&#160;</text><text text-decoration="none" x="43" fill="#4b4b4b" font-size="10pt" font-family="noto_regular"  y="17"></text></g><g transform="translate(240, 530.1) rotate(0, 0, 0)" width="55.04" height="20.37"><text text-decoration="none" x="0" fill="#ffffff" font-size="11pt" font-family="noto_regular"  y="17">Task&#160;</text><text text-decoration="none" x="35" fill="#ffffff" font-size="11pt" font-family="noto_regular"  y="17">10&#160;</text><text text-decoration="none" x="57" fill="#4b4b4b" font-size="10pt" font-family="noto_regular"  y="17"></text></g></g><g id="4sk0haakkt"><g transform="translate(310 560)"><path d="M 0.75,0.75 L 205.0000244140625,0.75 L 205.0000244140625,25.25 L 0.75,25.25 Z" fill="rgb(94,194,105)" stroke="#5ec269" stroke-width="1.5" stroke-linecap="round" stroke-linejoin="round" stroke-dasharray="0 0"/></g><g transform="translate(475.0000153518305, 562.5) rotate(0, 0, 0)" width="40.19" height="20.37"><text text-decoration="none" x="0" fill="#5c5c5c" font-size="11pt" font-family="noto_regular"  y="17">100%&#160;</text><text text-decoration="none" x="43" fill="#4b4b4b" font-size="10pt" font-family="noto_regular"  y="17"></text></g><g transform="translate(320, 560.35) rotate(0, 0, 0)" width="55.04" height="20.37"><text text-decoration="none" x="0" fill="#ffffff" font-size="11pt" font-family="noto_regular"  y="17">Task&#160;</text><text text-decoration="none" x="35" fill="#ffffff" font-size="11pt" font-family="noto_regular"  y="17">11&#160;</text><text text-decoration="none" x="57" fill="#4b4b4b" font-size="10pt" font-family="noto_regular"  y="17"></text></g></g><g id="6mutir1c7p"><g transform="translate(485 525)"><path d="M 0.75,0.75 L 205.0000244140625,0.75 L 205.0000244140625,25.75 L 0.75,25.75 Z" fill="rgb(94,194,105)" stroke="#5ec269" stroke-width="1.5" stroke-linecap="round" stroke-linejoin="round" stroke-dasharray="0 0"/></g><g transform="translate(650.0000153518305, 527.75) rotate(0, 0, 0)" width="40.19" height="20.37"><text text-decoration="none" x="0" fill="#5c5c5c" font-size="11pt" font-family="noto_regular"  y="17">100%&#160;</text><text text-decoration="none" x="43" fill="#4b4b4b" font-size="10pt" font-family="noto_regular"  y="17"></text></g><g transform="translate(495, 525.6) rotate(0, 0, 0)" width="55.04" height="20.37"><text text-decoration="none" x="0" fill="#ffffff" font-size="11pt" font-family="noto_regular"  y="17">Task&#160;</text><text text-decoration="none" x="35" fill="#ffffff" font-size="11pt" font-family="noto_regular"  y="17">12&#160;</text><text text-decoration="none" x="57" fill="#4b4b4b" font-size="10pt" font-family="noto_regular"  y="17"></text></g></g><g id="c307yesvpi"><g transform="translate(705 560)"><path d="M 0.75,0.75 L 310.000048828125,0.75 L 310.000048828125,26.25 L 0.75,26.25 Z" fill="rgb(94,194,105)" stroke="#5ec269" stroke-width="1.5" stroke-linecap="round" stroke-linejoin="round" stroke-dasharray="0 0"/></g><g transform="translate(975.0000332247826, 563) rotate(0, 0, 0)" width="40.19" height="20.37"><text text-decoration="none" x="0" fill="#5c5c5c" font-size="11pt" font-family="noto_regular"  y="17">100%&#160;</text><text text-decoration="none" x="43" fill="#4b4b4b" font-size="10pt" font-family="noto_regular"  y="17"></text></g><g transform="translate(715, 560.85) rotate(0, 0, 0)" width="55.04" height="20.37"><text text-decoration="none" x="0" fill="#ffffff" font-size="11pt" font-family="noto_regular"  y="17">Task&#160;</text><text text-decoration="none" x="35" fill="#ffffff" font-size="11pt" font-family="noto_regular"  y="17">13&#160;</text><text text-decoration="none" x="57" fill="#4b4b4b" font-size="10pt" font-family="noto_regular"  y="17"></text></g></g><g id="29lr17plnu"><g transform="translate(160 80)"><rect x="0" y="0" width="402.9996156692505" height="68.69976806640625" fill="rgba(255,255,255,0.01)" stroke="rgba(255,255,255,0.01)" stroke-width="NaN" stroke-linecap="round" stroke-linejoin="round"/></g><g transform="translate(180.46480783462525, 99.79988403320313) rotate(0, 181.035, 14.55)" width="362.07" height="29.1"><text text-decoration="none" x="15.034999999999997" fill="rgb(75, 75, 75)" font-weight="bold" font-size="16pt" font-family="noto_regular"  y="23">High&#160;</text><text text-decoration="none" x="68.035" fill="rgb(75, 75, 75)" font-weight="bold" font-size="16pt" font-family="noto_regular"  y="23">Level&#160;</text><text text-decoration="none" x="127.035" fill="rgb(75, 75, 75)" font-weight="bold" font-size="16pt" font-family="noto_regular"  y="23">Gantt&#160;</text><text text-decoration="none" x="192.035" fill="rgb(75, 75, 75)" font-weight="bold" font-size="16pt" font-family="noto_regular"  y="23">Chart&#160;</text><text text-decoration="none" x="256.03499999999997" fill="rgb(75, 75, 75)" font-weight="bold" font-size="16pt" font-family="noto_regular"  y="23">|&#160;</text><text text-decoration="none" x="273.03499999999997" fill="rgb(75, 75, 75)" font-weight="bold" font-size="16pt" font-family="noto_regular"  y="23">Project&#160;</text><text text-decoration="none" x="161.535" fill="rgb(75, 75, 75)" font-weight="bold" font-size="16pt" font-family="noto_regular"  y="52">XYZ</text><text text-decoration="none" x="200.535" fill="#4b4b4b" font-size="10pt" font-family="noto_regular"  y="52"></text></g></g><g id="2c7p0w3u53"><g><path d="M 665,310 L 665,330 L 691.25,330 L 717.5,330 L 717.5,307.5 L 717.5,285 L 770,285" fill="none" stroke="#429288" stroke-width="1.5" stroke-linecap="round" stroke-linejoin="round"/><path d="M 770,285 L 761.304347826087,279.25 L 761.304347826087,290.75 Z" fill="rgb(66,146,136)" stroke="#429288" stroke-width="1.5" stroke-linecap="round" stroke-linejoin="round"/></g></g><g id="17fs9attrh"><g><path d="M 375,365 L 375,397.5 L 382.5,397.5 L 390,397.5 L 390,430" fill="none" stroke="#e77975" stroke-width="1.5" stroke-linecap="round" stroke-linejoin="round"/><path d="M 390,430 L 395.75,421.30434782608694 L 384.25,421.30434782608694 Z" fill="rgb(231,121,117)" stroke="#e77975" stroke-width="1.5" stroke-linecap="round" stroke-linejoin="round"/></g></g><g id="5n1s41lnsy"><g><path d="M 795,365 L 830,365 L 830,430" fill="none" stroke="#a5a5a7" stroke-width="1.5" stroke-linecap="round" stroke-linejoin="round"/><path d="M 830,430 L 835.75,421.30434782608694 L 824.25,421.30434782608694 Z" fill="rgb(165,165,167)" stroke="#a5a5a7" stroke-width="1.5" stroke-linecap="round" stroke-linejoin="round"/></g></g><g id="19ze39wqas"><g><path d="M 655,455 L 705,455 L 705,560" fill="none" stroke="#2a4dd1" stroke-width="1.5" stroke-linecap="round" stroke-linejoin="round"/><path d="M 705,560 L 710.75,551.304347826087 L 699.25,551.304347826087 Z" fill="rgb(42,77,209)" stroke="#2a4dd1" stroke-width="1.5" stroke-linecap="round" stroke-linejoin="round"/></g></g><g id="beqeoqsy36"><g transform="translate(305 655)"><path d="M 0.75,0.75 L 105,0.75 L 105,25.25 L 0.75,25.25 Z" fill="rgb(42,77,209)" stroke="#2a4dd1" stroke-width="1.5" stroke-linecap="round" stroke-linejoin="round" stroke-dasharray="0 0"/></g><g transform="translate(370, 657.5) rotate(0, 0, 0)" width="40.19" height="20.37"><text text-decoration="none" x="0" fill="#f4f4f4" font-size="11pt" font-family="noto_regular"  y="17">100%&#160;</text><text text-decoration="none" x="43" fill="#4b4b4b" font-size="10pt" font-family="noto_regular"  y="17"></text></g><g transform="translate(310, 655.35) rotate(0, 0, 0)" width="54.08" height="20.37"><text text-decoration="none" x="0" fill="#ffffff" font-size="11pt" font-family="noto_regular"  y="17">Team&#160;</text><text text-decoration="none" x="42" fill="#ffffff" font-size="11pt" font-family="noto_regular"  y="17">1&#160;</text><text text-decoration="none" x="55" fill="#4b4b4b" font-size="10pt" font-family="noto_regular"  y="17"></text></g></g><g id="85348ekcv9"><g transform="translate(435 655)"><path d="M 0.75,0.75 L 105,0.75 L 105,25.75 L 0.75,25.75 Z" fill="rgb(66,146,136)" stroke="#429288" stroke-width="1.5" stroke-linecap="round" stroke-linejoin="round" stroke-dasharray="0 0"/></g><g transform="translate(500, 657.75) rotate(0, 0, 0)" width="40.19" height="20.37"><text text-decoration="none" x="0" fill="#5c5c5c" font-size="11pt" font-family="noto_regular"  y="17">100%&#160;</text><text text-decoration="none" x="43" fill="#4b4b4b" font-size="10pt" font-family="noto_regular"  y="17"></text></g><g transform="translate(440, 655.6) rotate(0, 0, 0)" width="54.08" height="20.37"><text text-decoration="none" x="0" fill="#363636" font-size="11pt" font-family="noto_regular"  y="17">Team&#160;</text><text text-decoration="none" x="42" fill="#363636" font-size="11pt" font-family="noto_regular"  y="17">2&#160;</text><text text-decoration="none" x="55" fill="#4b4b4b" font-size="10pt" font-family="noto_regular"  y="17"></text></g></g><g id="2bbkoqdtb2"><g transform="translate(565 655)"><path d="M 0.75,0.75 L 105,0.75 L 105,26.25 L 0.75,26.25 Z" fill="rgb(231,121,117)" stroke="#e77975" stroke-width="1.5" stroke-linecap="round" stroke-linejoin="round" stroke-dasharray="0 0"/></g><g transform="translate(630, 658) rotate(0, 0, 0)" width="40.19" height="20.37"><text text-decoration="none" x="0" fill="#5c5c5c" font-size="11pt" font-family="noto_regular"  y="17">100%&#160;</text><text text-decoration="none" x="43" fill="#4b4b4b" font-size="10pt" font-family="noto_regular"  y="17"></text></g><g transform="translate(570, 655.85) rotate(0, 0, 0)" width="54.08" height="20.37"><text text-decoration="none" x="0" fill="#262626" font-size="11pt" font-family="noto_regular"  y="17">Team&#160;</text><text text-decoration="none" x="42" fill="#262626" font-size="11pt" font-family="noto_regular"  y="17">3&#160;</text><text text-decoration="none" x="55" fill="#4b4b4b" font-size="10pt" font-family="noto_regular"  y="17"></text></g></g><g id="g8d88atmy0"><g transform="translate(690 655)"><path d="M 0.75,0.75 L 105,0.75 L 105,26.75 L 0.75,26.75 Z" fill="rgb(242,193,75)" stroke="#f2c14b" stroke-width="1.5" stroke-linecap="round" stroke-linejoin="round" stroke-dasharray="0 0"/></g><g transform="translate(755, 658.25) rotate(0, 0, 0)" width="40.19" height="20.37"><text text-decoration="none" x="0" fill="#5c5c5c" font-size="11pt" font-family="noto_regular"  y="17">100%&#160;</text><text text-decoration="none" x="43" fill="#4b4b4b" font-size="10pt" font-family="noto_regular"  y="17"></text></g><g transform="translate(695, 656.1) rotate(0, 0, 0)" width="54.08" height="20.37"><text text-decoration="none" x="0" fill="#111111" font-size="11pt" font-family="noto_regular"  y="17">Team&#160;</text><text text-decoration="none" x="42" fill="#111111" font-size="11pt" font-family="noto_regular"  y="17">4&#160;</text><text text-decoration="none" x="55" fill="#4b4b4b" font-size="10pt" font-family="noto_regular"  y="17"></text></g></g><g id="ud47k1qwh2"><g transform="translate(820 655)"><path d="M 0.75,0.75 L 105,0.75 L 105,27.25 L 0.75,27.25 Z" fill="rgb(94,194,105)" stroke="#5ec269" stroke-width="1.5" stroke-linecap="round" stroke-linejoin="round" stroke-dasharray="0 0"/></g><g transform="translate(885, 658.5) rotate(0, 0, 0)" width="40.19" height="20.37"><text text-decoration="none" x="0" fill="#5c5c5c" font-size="11pt" font-family="noto_regular"  y="17">100%&#160;</text><text text-decoration="none" x="43" fill="#4b4b4b" font-size="10pt" font-family="noto_regular"  y="17"></text></g><g transform="translate(825, 656.35) rotate(0, 0, 0)" width="54.08" height="20.37"><text text-decoration="none" x="0" fill="#262626" font-size="11pt" font-family="noto_regular"  y="17">Team&#160;</text><text text-decoration="none" x="42" fill="#262626" font-size="11pt" font-family="noto_regular"  y="17">5&#160;</text><text text-decoration="none" x="55" fill="#4b4b4b" font-size="10pt" font-family="noto_regular"  y="17"></text></g></g></svg>